<svg xmlns="http://www.w3.org/2000/svg" width="720" height="342" viewBox="0 0 720 342" font-family="-apple-system,BlinkMacSystemFont,'Segoe UI',Helvetica,Arial,sans-serif" role="img" aria-label="Scatter of token savings versus answer kept across 22 workloads"><title>Cut the tokens, keep the answer</title><desc>3-github-triage 84% savings 100% kept PASS; 8-long-session 72% savings 100% kept PASS; 16-test-run 77% savings 100% kept PASS; 24-agent-toolcalls 25% savings 100% kept PASS; 31-long-toolsession 37% savings 100% kept PASS; 5-code-search 68% savings 60% kept FAIL; 6-git-diff 68% savings 50% kept FAIL; 7-codebase-explore 28% savings 100% kept PASS; 15-multifile-graph 32% savings 100% kept PASS; 17-python-multifile 33% savings 100% kept PASS; 27-read-service-ts 66% savings 100% kept PASS; 28-read-module-py 71% savings 100% kept PASS; 1-access-log 92% savings 100% kept PASS; 2-sre-incident 84% savings 100% kept PASS; 4-json-array 78% savings 100% kept PASS; 29-orders-json 42% savings 100% kept PASS; 30-metrics-json 42% savings 100% kept PASS; 18-session-recall 85% savings 100% kept PASS; 11-mcp-tools 65% savings 100% kept PASS; 12-rag-overfetch 67% savings 100% kept PASS; 13-prompt-boilerplate 84% savings 100% kept PASS; 23-mcp-schema 7% savings 100% kept PASS</desc><line x1="58" y1="76" x2="58" y2="296" stroke="#30363d" stroke-width="1"/><line x1="58" y1="296" x2="700" y2="296" stroke="#30363d" stroke-width="1"/><text x="58" y="314" fill="#9198a1" font-size="11" text-anchor="middle">0</text><text x="50" y="300" fill="#9198a1" font-size="11" text-anchor="end">0</text><line x1="218.5" y1="76" x2="218.5" y2="296" stroke="#30363d" stroke-width="1"/><line x1="58" y1="241" x2="700" y2="241" stroke="#30363d" stroke-width="1"/><text x="218.5" y="314" fill="#9198a1" font-size="11" text-anchor="middle">25</text><text x="50" y="245" fill="#9198a1" font-size="11" text-anchor="end">25</text><line x1="379" y1="76" x2="379" y2="296" stroke="#30363d" stroke-width="1"/><line x1="58" y1="186" x2="700" y2="186" stroke="#30363d" stroke-width="1"/><text x="379" y="314" fill="#9198a1" font-size="11" text-anchor="middle">50</text><text x="50" y="190" fill="#9198a1" font-size="11" text-anchor="end">50</text><line x1="539.5" y1="76" x2="539.5" y2="296" stroke="#30363d" stroke-width="1"/><line x1="58" y1="131" x2="700" y2="131" stroke="#30363d" stroke-width="1"/><text x="539.5" y="314" fill="#9198a1" font-size="11" text-anchor="middle">75</text><text x="50" y="135" fill="#9198a1" font-size="11" text-anchor="end">75</text><line x1="700" y1="76" x2="700" y2="296" stroke="#30363d" stroke-width="1"/><line x1="58" y1="76" x2="700" y2="76" stroke="#30363d" stroke-width="1"/><text x="700" y="314" fill="#9198a1" font-size="11" text-anchor="middle">100</text><text x="50" y="80" fill="#9198a1" font-size="11" text-anchor="end">100</text><text x="379" y="334" fill="#9198a1" font-size="12" text-anchor="middle">token savings (%)</text><text x="16" y="186" fill="#9198a1" font-size="12" text-anchor="middle" transform="rotate(-90 16 186)">answer kept (%)</text><circle cx="597.3" cy="76.0" r="5.5" fill="#2ea36f" fill-opacity="0.82"/><circle cx="520.2" cy="76.0" r="5.5" fill="#2ea36f" fill-opacity="0.82"/><circle cx="552.3" cy="76.0" r="5.5" fill="#2ea36f" fill-opacity="0.82"/><circle cx="218.5" cy="76.0" r="5.5" fill="#2ea36f" fill-opacity="0.82"/><circle cx="295.5" cy="76.0" r="5.5" fill="#2ea36f" fill-opacity="0.82"/><circle cx="494.6" cy="164.0" r="5.5" fill="#f85149" fill-opacity="0.82"/><circle cx="494.6" cy="186.0" r="5.5" fill="#f85149" fill-opacity="0.82"/><circle cx="237.8" cy="76.0" r="5.5" fill="#2ea36f" fill-opacity="0.82"/><circle cx="263.4" cy="76.0" r="5.5" fill="#2ea36f" fill-opacity="0.82"/><circle cx="269.9" cy="76.0" r="5.5" fill="#2ea36f" fill-opacity="0.82"/><circle cx="481.7" cy="76.0" r="5.5" fill="#2ea36f" fill-opacity="0.82"/><circle cx="513.8" cy="76.0" r="5.5" fill="#2ea36f" fill-opacity="0.82"/><circle cx="648.6" cy="76.0" r="5.5" fill="#2ea36f" fill-opacity="0.82"/><circle cx="597.3" cy="76.0" r="5.5" fill="#2ea36f" fill-opacity="0.82"/><circle cx="558.8" cy="76.0" r="5.5" fill="#2ea36f" fill-opacity="0.82"/><circle cx="327.6" cy="76.0" r="5.5" fill="#2ea36f" fill-opacity="0.82"/><circle cx="327.6" cy="76.0" r="5.5" fill="#2ea36f" fill-opacity="0.82"/><circle cx="603.7" cy="76.0" r="5.5" fill="#2ea36f" fill-opacity="0.82"/><circle cx="475.3" cy="76.0" r="5.5" fill="#2ea36f" fill-opacity="0.82"/><circle cx="488.1" cy="76.0" r="5.5" fill="#2ea36f" fill-opacity="0.82"/><circle cx="597.3" cy="76.0" r="5.5" fill="#2ea36f" fill-opacity="0.82"/><circle cx="102.9" cy="76.0" r="5.5" fill="#2ea36f" fill-opacity="0.82"/><text x="16" y="26" fill="#e6edf3" font-size="16" font-weight="500">Cut the tokens, keep the answer</text><text x="16" y="44" fill="#9198a1" font-size="12">each dot = one of 22 workloads · y = Claude Opus 4.8 judge</text><circle cx="22" cy="56" r="5" fill="#2ea36f"/><text x="32" y="60" fill="#9198a1" font-size="12">pass</text><circle cx="92" cy="56" r="5" fill="#d4a017"/><text x="102" y="60" fill="#9198a1" font-size="12">marginal</text><circle cx="196" cy="56" r="5" fill="#f85149"/><text x="206" y="60" fill="#9198a1" font-size="12">fail</text></svg>
