<svg xmlns="http://www.w3.org/2000/svg" width="720" height="292" viewBox="0 0 720 292" font-family="-apple-system,BlinkMacSystemFont,'Segoe UI',Helvetica,Arial,sans-serif" role="img" aria-label="Token savings by Anyray optimizer strategy, 76% overall"><title>Token savings by strategy</title><desc>window_budget 89%, relevance_filter 85%, prompt_compression 84%, command_digest 77%, context_compression 67%, tool_pruning 63%, code_graph 40%, tool_schema_compression 7%</desc><text x="16" y="26" fill="#e6edf3" font-size="16" font-weight="500">Token savings by strategy</text><text x="16" y="44" fill="#9198a1" font-size="12">24 accounting workloads · 76% overall · tokens at chars/4</text><text x="168" y="70" fill="#e6edf3" font-size="13" text-anchor="end">window_budget</text><rect x="184" y="58.5" width="484" height="15" rx="3" fill="#21262d"/><rect x="184" y="58.5" width="431" height="15" rx="3" fill="#2ea36f"/><text x="621" y="70" fill="#56d4a0" font-size="12" font-weight="500">89%</text><text x="168" y="98" fill="#e6edf3" font-size="13" text-anchor="end">relevance_filter</text><rect x="184" y="86.5" width="484" height="15" rx="3" fill="#21262d"/><rect x="184" y="86.5" width="411" height="15" rx="3" fill="#2ea36f"/><text x="601" y="98" fill="#56d4a0" font-size="12" font-weight="500">85%</text><text x="168" y="126" fill="#e6edf3" font-size="13" text-anchor="end">prompt_compression</text><rect x="184" y="114.5" width="484" height="15" rx="3" fill="#21262d"/><rect x="184" y="114.5" width="407" height="15" rx="3" fill="#2ea36f"/><text x="597" y="126" fill="#56d4a0" font-size="12" font-weight="500">84%</text><text x="168" y="154" fill="#e6edf3" font-size="13" text-anchor="end">command_digest</text><rect x="184" y="142.5" width="484" height="15" rx="3" fill="#21262d"/><rect x="184" y="142.5" width="373" height="15" rx="3" fill="#2ea36f"/><text x="563" y="154" fill="#56d4a0" font-size="12" font-weight="500">77%</text><text x="168" y="182" fill="#e6edf3" font-size="13" text-anchor="end">context_compression</text><rect x="184" y="170.5" width="484" height="15" rx="3" fill="#21262d"/><rect x="184" y="170.5" width="324" height="15" rx="3" fill="#2ea36f"/><text x="514" y="182" fill="#56d4a0" font-size="12" font-weight="500">67%</text><text x="168" y="210" fill="#e6edf3" font-size="13" text-anchor="end">tool_pruning</text><rect x="184" y="198.5" width="484" height="15" rx="3" fill="#21262d"/><rect x="184" y="198.5" width="305" height="15" rx="3" fill="#2ea36f"/><text x="495" y="210" fill="#56d4a0" font-size="12" font-weight="500">63%</text><text x="168" y="238" fill="#e6edf3" font-size="13" text-anchor="end">code_graph</text><rect x="184" y="226.5" width="484" height="15" rx="3" fill="#21262d"/><rect x="184" y="226.5" width="194" height="15" rx="3" fill="#2ea36f"/><text x="384" y="238" fill="#56d4a0" font-size="12" font-weight="500">40%</text><text x="168" y="266" fill="#e6edf3" font-size="13" text-anchor="end">tool_schema_compression</text><rect x="184" y="254.5" width="484" height="15" rx="3" fill="#21262d"/><rect x="184" y="254.5" width="34" height="15" rx="3" fill="#2ea36f"/><text x="224" y="266" fill="#56d4a0" font-size="12" font-weight="500">7%</text></svg>
