<svg xmlns="http://www.w3.org/2000/svg" width="720" height="376" viewBox="0 0 720 376" font-family="-apple-system,BlinkMacSystemFont,'Segoe UI',Helvetica,Arial,sans-serif" role="img" aria-label="Token savings by Anyray optimizer strategy, 87% overall"><title>Token savings by strategy</title><desc>output_externalize 99%, context_compression 94%, window_budget 92%, prompt_compression 85%, relevance_filter 84%, observation_mask 83%, command_digest 77%, tool_pruning 70%, code_graph 40%, context_dedupe 37%, tool_schema_compression 7%</desc><text x="16" y="26" fill="#1f2328" font-size="16" font-weight="500">Token savings by strategy</text><text x="16" y="44" fill="#59636e" font-size="12">29 accounting workloads · 87% overall · tokens at chars/4</text><text x="168" y="70" fill="#1f2328" font-size="13" text-anchor="end">output_externalize</text><rect x="184" y="58.5" width="484" height="15" rx="3" fill="#eaeef2"/><rect x="184" y="58.5" width="479" height="15" rx="3" fill="#1a7f5a"/><text x="669" y="70" fill="#0f6e56" font-size="12" font-weight="500">99%</text><text x="168" y="98" fill="#1f2328" font-size="13" text-anchor="end">context_compression</text><rect x="184" y="86.5" width="484" height="15" rx="3" fill="#eaeef2"/><rect x="184" y="86.5" width="455" height="15" rx="3" fill="#1a7f5a"/><text x="645" y="98" fill="#0f6e56" font-size="12" font-weight="500">94%</text><text x="168" y="126" fill="#1f2328" font-size="13" text-anchor="end">window_budget</text><rect x="184" y="114.5" width="484" height="15" rx="3" fill="#eaeef2"/><rect x="184" y="114.5" width="445" height="15" rx="3" fill="#1a7f5a"/><text x="635" y="126" fill="#0f6e56" font-size="12" font-weight="500">92%</text><text x="168" y="154" fill="#1f2328" font-size="13" text-anchor="end">prompt_compression</text><rect x="184" y="142.5" width="484" height="15" rx="3" fill="#eaeef2"/><rect x="184" y="142.5" width="411" height="15" rx="3" fill="#1a7f5a"/><text x="601" y="154" fill="#0f6e56" font-size="12" font-weight="500">85%</text><text x="168" y="182" fill="#1f2328" font-size="13" text-anchor="end">relevance_filter</text><rect x="184" y="170.5" width="484" height="15" rx="3" fill="#eaeef2"/><rect x="184" y="170.5" width="407" height="15" rx="3" fill="#1a7f5a"/><text x="597" y="182" fill="#0f6e56" font-size="12" font-weight="500">84%</text><text x="168" y="210" fill="#1f2328" font-size="13" text-anchor="end">observation_mask</text><rect x="184" y="198.5" width="484" height="15" rx="3" fill="#eaeef2"/><rect x="184" y="198.5" width="402" height="15" rx="3" fill="#1a7f5a"/><text x="592" y="210" fill="#0f6e56" font-size="12" font-weight="500">83%</text><text x="168" y="238" fill="#1f2328" font-size="13" text-anchor="end">command_digest</text><rect x="184" y="226.5" width="484" height="15" rx="3" fill="#eaeef2"/><rect x="184" y="226.5" width="373" height="15" rx="3" fill="#1a7f5a"/><text x="563" y="238" fill="#0f6e56" font-size="12" font-weight="500">77%</text><text x="168" y="266" fill="#1f2328" font-size="13" text-anchor="end">tool_pruning</text><rect x="184" y="254.5" width="484" height="15" rx="3" fill="#eaeef2"/><rect x="184" y="254.5" width="339" height="15" rx="3" fill="#1a7f5a"/><text x="529" y="266" fill="#0f6e56" font-size="12" font-weight="500">70%</text><text x="168" y="294" fill="#1f2328" font-size="13" text-anchor="end">code_graph</text><rect x="184" y="282.5" width="484" height="15" rx="3" fill="#eaeef2"/><rect x="184" y="282.5" width="194" height="15" rx="3" fill="#1a7f5a"/><text x="384" y="294" fill="#0f6e56" font-size="12" font-weight="500">40%</text><text x="168" y="322" fill="#1f2328" font-size="13" text-anchor="end">context_dedupe</text><rect x="184" y="310.5" width="484" height="15" rx="3" fill="#eaeef2"/><rect x="184" y="310.5" width="179" height="15" rx="3" fill="#1a7f5a"/><text x="369" y="322" fill="#0f6e56" font-size="12" font-weight="500">37%</text><text x="168" y="350" fill="#1f2328" font-size="13" text-anchor="end">tool_schema_compression</text><rect x="184" y="338.5" width="484" height="15" rx="3" fill="#eaeef2"/><rect x="184" y="338.5" width="34" height="15" rx="3" fill="#1a7f5a"/><text x="224" y="350" fill="#0f6e56" font-size="12" font-weight="500">7%</text></svg>
