<svg xmlns="http://www.w3.org/2000/svg" width="720" height="320" viewBox="0 0 720 320" font-family="-apple-system,BlinkMacSystemFont,'Segoe UI',Helvetica,Arial,sans-serif" role="img" aria-label="Token savings by Anyray optimizer strategy, 72% overall"><title>Token savings by strategy</title><desc>relevance_filter 85%, prompt_compression 84%, command_digest 77%, window_budget 70%, context_compression 68%, tool_pruning 65%, code_graph 52%, code_skeleton 28%, tool_schema_compression 7%</desc><text x="16" y="26" fill="#1f2328" font-size="16" font-weight="500">Token savings by strategy</text><text x="16" y="44" fill="#59636e" font-size="12">22 accounting workloads · 72% overall · tokens at chars/4</text><text x="168" y="70" fill="#1f2328" font-size="13" text-anchor="end">relevance_filter</text><rect x="184" y="58.5" width="484" height="15" rx="3" fill="#eaeef2"/><rect x="184" y="58.5" width="411" height="15" rx="3" fill="#1a7f5a"/><text x="601" y="70" fill="#0f6e56" font-size="12" font-weight="500">85%</text><text x="168" y="98" fill="#1f2328" font-size="13" text-anchor="end">prompt_compression</text><rect x="184" y="86.5" width="484" height="15" rx="3" fill="#eaeef2"/><rect x="184" y="86.5" width="407" height="15" rx="3" fill="#1a7f5a"/><text x="597" y="98" fill="#0f6e56" font-size="12" font-weight="500">84%</text><text x="168" y="126" fill="#1f2328" font-size="13" text-anchor="end">command_digest</text><rect x="184" y="114.5" width="484" height="15" rx="3" fill="#eaeef2"/><rect x="184" y="114.5" width="373" height="15" rx="3" fill="#1a7f5a"/><text x="563" y="126" fill="#0f6e56" font-size="12" font-weight="500">77%</text><text x="168" y="154" fill="#1f2328" font-size="13" text-anchor="end">window_budget</text><rect x="184" y="142.5" width="484" height="15" rx="3" fill="#eaeef2"/><rect x="184" y="142.5" width="339" height="15" rx="3" fill="#1a7f5a"/><text x="529" y="154" fill="#0f6e56" font-size="12" font-weight="500">70%</text><text x="168" y="182" fill="#1f2328" font-size="13" text-anchor="end">context_compression</text><rect x="184" y="170.5" width="484" height="15" rx="3" fill="#eaeef2"/><rect x="184" y="170.5" width="329" height="15" rx="3" fill="#1a7f5a"/><text x="519" y="182" fill="#0f6e56" font-size="12" font-weight="500">68%</text><text x="168" y="210" fill="#1f2328" font-size="13" text-anchor="end">tool_pruning</text><rect x="184" y="198.5" width="484" height="15" rx="3" fill="#eaeef2"/><rect x="184" y="198.5" width="315" height="15" rx="3" fill="#1a7f5a"/><text x="505" y="210" fill="#0f6e56" font-size="12" font-weight="500">65%</text><text x="168" y="238" fill="#1f2328" font-size="13" text-anchor="end">code_graph</text><rect x="184" y="226.5" width="484" height="15" rx="3" fill="#eaeef2"/><rect x="184" y="226.5" width="252" height="15" rx="3" fill="#1a7f5a"/><text x="442" y="238" fill="#0f6e56" font-size="12" font-weight="500">52%</text><text x="168" y="266" fill="#1f2328" font-size="13" text-anchor="end">code_skeleton</text><rect x="184" y="254.5" width="484" height="15" rx="3" fill="#eaeef2"/><rect x="184" y="254.5" width="136" height="15" rx="3" fill="#1a7f5a"/><text x="326" y="266" fill="#0f6e56" font-size="12" font-weight="500">28%</text><text x="168" y="294" fill="#1f2328" font-size="13" text-anchor="end">tool_schema_compression</text><rect x="184" y="282.5" width="484" height="15" rx="3" fill="#eaeef2"/><rect x="184" y="282.5" width="34" height="15" rx="3" fill="#1a7f5a"/><text x="224" y="294" fill="#0f6e56" font-size="12" font-weight="500">7%</text></svg>
